<svg viewBox="0 0 400 250" xmlns="http://www.w3.org/2000/svg" fill="none">
    <rect width="400" height="250" fill="#121212"/>
    
    <rect x="10" y="10" width="70" height="230" rx="5" fill="#1e1e1e"/>
    <rect x="25" y="25" width="40" height="5" rx="2" fill="#4a4a4a"/>
    <rect x="25" y="40" width="40" height="5" rx="2" fill="#4a4a4a"/>
    <rect x="25" y="55" width="40" height="5" rx="2" fill="#00aaff"/>

    <rect x="90" y="10" width="300" height="230" rx="5" fill="#1e1e1e"/>

    <path d="M105 120 C 130 90, 150 140, 180 110 S 210 70, 240 90 S 270 130, 300 100 S 330 60, 360 80" stroke="#00aaff" stroke-width="2"/>
    <rect x="105" y="50" width="80" height="8" rx="3" fill="#4a4a4a"/>

    <rect x="105" y="160" width="130" height="60" rx="4" fill="#121212"/>
    <rect x="115" y="170" width="60" height="6" rx="2" fill="#4a4a4a"/>
    <rect x="115" y="190" width="90" height="10" rx="3" fill="#00aaff"/>

    <rect x="255" y="160" width="125" height="60" rx="4" fill="#121212"/>
    <rect x="265" y="170" width="60" height="6" rx="2" fill="#4a4a4a"/>
    <rect x="265" y="190" width="90" height="10" rx="3" fill="#4a4a4a"/>
</svg>