<svg viewBox="0 0 400 250" xmlns="http://www.w3.org/2000/svg" fill="none">
    <rect width="400" height="250" fill="#121212"/>

    <rect x="10" y="10" width="380" height="30" rx="5" fill="#1e1e1e"/>
    <rect x="25" y="20" width="80" height="5" rx="2" fill="#00aaff"/>
    <rect x="120" y="20" width="50" height="5" rx="2" fill="#4a4a4a"/>
    <rect x="185" y="20" width="50" height="5" rx="2" fill="#4a4a4a"/>

    <rect x="10" y="50" width="380" height="190" rx="5" fill="#1e1e1e"/>
    <rect x="25" y="65" width="150" height="160" rx="4" fill="#4a4a4a"/>
    <rect x="190" y="65" width="180" height="12" rx="4" fill="#00aaff"/>
    <rect x="190" y="90" width="180" height="5" rx="2" fill="#4a4a4a"/>
    <rect x="190" y="100" width="180" height="5" rx="2" fill="#4a4a4a"/>
    <rect x="190" y="110" width="140" height="5" rx="2" fill="#4a4a4a"/>
    <rect x="190" y="130" width="180" height="5" rx="2" fill="#4a4a4a"/>
    <rect x="190" y="140" width="100" height="5" rx="2" fill="#4a4a4a"/>
</svg>